# xmcd
#
# Track frame offsets:
# 150
# 17810
# 29755
# 49252
# 59180
# 78970
#
# Disc length: 1190 seconds
#
#
# Revision: 2
# Processed by: cddbd v1.5.2PL0 Copyright (c) Steve Scherf et al.
# Submitted via: FreeRIP 2.00 
#
DISCID=5104a406
DTITLE=VARIOUS` - BLUES AND SOUL VOL1
DYEAR=1900
DGENRE=Blues
TTITLE0=PERCY SLEDGE-WHEN A MAN LOVES A WOMAN
TTITLE1=THE TYMES-YOU LITTLE TRUSTMAKER
TTITLE2=THE THREE DEGREES- DIRTY OL' MAN
TTITLE3=JOHN LEE HOOKER- DIMPLES
TTITLE4=JAMES BROWN-YOU CAN'T KEEP A GOOD MAN DOWN
TTITLE5=SAM AND DAVE-SOUL SISTER BROWN SUGAR
EXTD=
EXTT0=
EXTT1=
EXTT2=
EXTT3=
EXTT4=
EXTT5=
PLAYORDER=
